<svg id="Layer_1" data-name="Layer 1" xmlns="http://www.w3.org/2000/svg" viewBox="0 0 752.21 243.17"><defs><style>.cls-1{fill:#e29e25;}.cls-2{fill:#15160c;}.cls-3{fill:#8c8a89;}.cls-4{fill:#595350;}.cls-5{fill:#fff;}</style></defs><polygon class="cls-1" points="0 44.18 0 80.63 39.05 73.57 39.05 231.48 76.8 243.17 76.8 66.74 142.74 54.82 142.74 0 0 44.18"/><polygon class="cls-2" points="285.48 44.18 285.48 80.63 246.42 73.57 246.42 231.48 208.68 243.17 208.68 66.74 142.74 54.82 142.74 0 285.48 44.18"/><polygon class="cls-3" points="0 80.63 39.05 84.57 39.05 73.57 0 80.63"/><polygon class="cls-3" points="246.42 73.57 246.42 84.57 285.48 80.63 246.42 73.57"/><polygon class="cls-4" points="142.74 73.57 142.74 156.22 142.74 234.01 208.68 243.17 208.68 159.75 208.68 66.85 142.74 73.57"/><polygon class="cls-5" points="76.8 66.85 76.8 159.75 76.8 243.17 142.74 234.01 142.74 156.22 142.74 73.57 76.8 66.85"/><polygon class="cls-3" points="142.74 54.93 76.8 66.85 142.74 73.57 208.68 66.85 142.74 54.93"/><rect class="cls-2" x="431.71" y="117.29" width="33.84" height="96.36"/><rect class="cls-2" x="364.87" y="117.29" width="33.84" height="96.36"/><polygon class="cls-2" points="325.14 80.4 325.14 107.77 505.65 107.77 505.65 107.77 505.65 80.4 325.14 80.4"/><polygon class="cls-1" points="617.43 160.24 617.43 133.63 600.19 133.63 553.94 133.63 520.1 133.63 520.1 160.24 553.94 160.24 617.43 160.24"/><polygon class="cls-1" points="600.19 107.2 624.27 107.2 624.27 80.59 520.1 80.59 520.1 107.2 553.94 107.2 600.19 107.2"/><polygon class="cls-1" points="626.36 187.04 553.94 187.04 520.1 187.04 520.1 213.65 626.36 213.65 626.36 187.04"/><path class="cls-2" d="M741.11,356.06c-13.87,0-34.4-8-48.09-20l-13.12,26c15.78,12.93,38.59,21.29,60.83,21.29,15.92,0,30.07-4.05,39.78-11.92A35.3,35.3,0,0,0,793.82,346c.08-1.06.14-2.13.14-3.24,0-48.09-70.33-35-70.33-58,0-6.46,5.89-9.69,14.63-9.69,9.28,0,23.58,4.19,36.34,10.53a35.11,35.11,0,0,1,13.54-26.3,102.16,102.16,0,0,0-47-11.6c-31.93,0-53,15.59-53,40.11,0,47.14,70.33,33.07,70.33,56.64C758.41,352.07,751.76,356.06,741.11,356.06Z" transform="translate(-41.75 -168.64)"/></svg>